<svg width="16" height="16" viewBox="0 0 16 16" fill="none" xmlns="http://www.w3.org/2000/svg">
<g clip-path="url(#clip0_10_953)">
<rect y="2" width="16" height="12" rx="0.666667" fill="white"/>
<path d="M1.03932 12.1055H1.38465V12.1643H1.03932V12.1055ZM1.04679 12.4069H1.43972V12.4667H0.977718V11.8133H1.42572V11.8731H1.04679V12.4069ZM1.72171 12.4713C1.68126 12.4713 1.643 12.4657 1.60691 12.4545C1.57082 12.4427 1.54251 12.4281 1.52198 12.4107L1.55184 12.3584C1.57175 12.3733 1.59726 12.3864 1.62838 12.3976C1.65949 12.4082 1.69215 12.4135 1.72638 12.4135C1.77304 12.4135 1.80664 12.4063 1.82718 12.392C1.84771 12.3771 1.85798 12.3575 1.85798 12.3332C1.85798 12.3152 1.85206 12.3012 1.84024 12.2912C1.82904 12.2806 1.81411 12.2728 1.79544 12.2679C1.77678 12.2623 1.75593 12.2576 1.73291 12.2539C1.70989 12.2501 1.68686 12.2458 1.66384 12.2408C1.64144 12.2358 1.62091 12.2287 1.60224 12.2193C1.58358 12.2094 1.56833 12.196 1.55651 12.1792C1.54531 12.1624 1.53971 12.14 1.53971 12.112C1.53971 12.0852 1.54718 12.0613 1.56211 12.0401C1.57704 12.019 1.59882 12.0025 1.62744 11.9907C1.65669 11.9782 1.69215 11.972 1.73384 11.972C1.76558 11.972 1.79731 11.9764 1.82904 11.9851C1.86078 11.9932 1.88691 12.004 1.90744 12.0177L1.87851 12.0709C1.85673 12.056 1.8334 12.0454 1.80851 12.0392C1.78362 12.0324 1.75873 12.0289 1.73384 12.0289C1.68966 12.0289 1.657 12.0367 1.63584 12.0523C1.61531 12.0672 1.60504 12.0865 1.60504 12.1101C1.60504 12.1288 1.61064 12.1434 1.62184 12.154C1.63366 12.1646 1.64891 12.173 1.66758 12.1792C1.68686 12.1848 1.70771 12.1895 1.73011 12.1932C1.75313 12.1969 1.77584 12.2016 1.79824 12.2072C1.82126 12.2122 1.84211 12.2193 1.86078 12.2287C1.88006 12.2374 1.89531 12.2501 1.90651 12.2669C1.91833 12.2831 1.92424 12.3046 1.92424 12.3313C1.92424 12.36 1.91615 12.3848 1.89998 12.406C1.88442 12.4265 1.8614 12.4427 1.83091 12.4545C1.80104 12.4657 1.76464 12.4713 1.72171 12.4713ZM2.2101 12.4713C2.16406 12.4713 2.12859 12.4589 2.1037 12.434C2.07882 12.4091 2.06637 12.374 2.06637 12.3285V11.8684H2.13264V12.3248C2.13264 12.3534 2.13979 12.3755 2.1541 12.3911C2.16904 12.4066 2.19019 12.4144 2.21757 12.4144C2.24682 12.4144 2.27108 12.406 2.29037 12.3892L2.3137 12.4368C2.30064 12.4486 2.28477 12.4573 2.2661 12.4629C2.24806 12.4685 2.22939 12.4713 2.2101 12.4713ZM1.97864 12.0317V11.9767H2.28197V12.0317H1.97864ZM2.75074 12.4667V12.3584L2.74794 12.3407V12.1596C2.74794 12.1179 2.73612 12.0859 2.71247 12.0635C2.68945 12.0411 2.65492 12.0299 2.60887 12.0299C2.57714 12.0299 2.54696 12.0352 2.51834 12.0457C2.48972 12.0563 2.46545 12.0703 2.44554 12.0877L2.41567 12.0383C2.44056 12.0171 2.47043 12.0009 2.50527 11.9897C2.54012 11.9779 2.57683 11.972 2.6154 11.972C2.67887 11.972 2.72772 11.9879 2.76194 12.0196C2.79678 12.0507 2.8142 12.0983 2.8142 12.1624V12.4667H2.75074ZM2.5818 12.4713C2.54509 12.4713 2.51305 12.4654 2.48567 12.4536C2.45892 12.4412 2.43838 12.4244 2.42407 12.4032C2.40976 12.3814 2.4026 12.3565 2.4026 12.3285C2.4026 12.303 2.40852 12.28 2.42034 12.2595C2.43278 12.2383 2.45269 12.2215 2.48007 12.2091C2.50807 12.196 2.5454 12.1895 2.59207 12.1895H2.761V12.2389H2.59394C2.54665 12.2389 2.51367 12.2473 2.495 12.2641C2.47696 12.2809 2.46794 12.3018 2.46794 12.3267C2.46794 12.3547 2.47883 12.3771 2.5006 12.3939C2.52238 12.4107 2.55287 12.4191 2.59207 12.4191C2.6294 12.4191 2.66145 12.4107 2.6882 12.3939C2.71558 12.3764 2.73549 12.3516 2.74794 12.3192L2.76287 12.3649C2.75043 12.3973 2.72865 12.4231 2.69754 12.4424C2.66705 12.4617 2.62847 12.4713 2.5818 12.4713ZM3.61579 11.972C3.65561 11.972 3.69015 11.9798 3.71939 11.9953C3.74926 12.0103 3.77228 12.0333 3.78846 12.0644C3.80526 12.0955 3.81366 12.1347 3.81366 12.182V12.4667H3.74739V12.1885C3.74739 12.1369 3.73495 12.098 3.71006 12.0719C3.68579 12.0451 3.65126 12.0317 3.60646 12.0317C3.57286 12.0317 3.54361 12.0389 3.51873 12.0532C3.49446 12.0669 3.47548 12.0871 3.46179 12.1139C3.44873 12.14 3.44219 12.1717 3.44219 12.2091V12.4667H3.37593V12.1885C3.37593 12.1369 3.36348 12.098 3.33859 12.0719C3.3137 12.0451 3.27886 12.0317 3.23406 12.0317C3.20108 12.0317 3.17215 12.0389 3.14726 12.0532C3.12237 12.0669 3.10308 12.0871 3.08939 12.1139C3.07633 12.14 3.06979 12.1717 3.06979 12.2091V12.4667H3.00353V11.9767H3.06699V12.1092L3.05673 12.0859C3.07166 12.0504 3.09561 12.0227 3.12859 12.0028C3.16219 11.9823 3.2017 11.972 3.24713 11.972C3.29504 11.972 3.33579 11.9841 3.36939 12.0084C3.40299 12.032 3.42477 12.0678 3.43473 12.1157L3.40859 12.1055C3.4229 12.0656 3.4481 12.0336 3.48419 12.0093C3.5209 11.9844 3.56477 11.972 3.61579 11.972ZM4.0027 12.4667V11.9767H4.06897V12.4667H4.0027ZM4.0363 11.8684C4.02261 11.8684 4.0111 11.8637 4.00177 11.8544C3.99244 11.8451 3.98777 11.8339 3.98777 11.8208C3.98777 11.8077 3.99244 11.7968 4.00177 11.7881C4.0111 11.7788 4.02261 11.7741 4.0363 11.7741C4.04999 11.7741 4.0615 11.7785 4.07084 11.7872C4.08017 11.7959 4.08484 11.8068 4.08484 11.8199C4.08484 11.8336 4.08017 11.8451 4.07084 11.8544C4.06213 11.8637 4.05061 11.8684 4.0363 11.8684ZM4.51282 11.972C4.55264 11.972 4.58749 11.9798 4.61735 11.9953C4.64784 12.0103 4.67149 12.0333 4.68829 12.0644C4.70571 12.0955 4.71442 12.1347 4.71442 12.182V12.4667H4.64815V12.1885C4.64815 12.1369 4.63509 12.098 4.60895 12.0719C4.58344 12.0451 4.54735 12.0317 4.50069 12.0317C4.46584 12.0317 4.43535 12.0389 4.40922 12.0532C4.38371 12.0669 4.3638 12.0871 4.34949 12.1139C4.3358 12.14 4.32895 12.1717 4.32895 12.2091V12.4667H4.26269V11.9767H4.32615V12.1111L4.31589 12.0859C4.33144 12.0504 4.35633 12.0227 4.39055 12.0028C4.42478 11.9823 4.46553 11.972 4.51282 11.972ZM5.11088 12.4713C5.05986 12.4713 5.01506 12.4608 4.97648 12.4396C4.93791 12.4178 4.90773 12.3883 4.88595 12.3509C4.86417 12.313 4.85328 12.2697 4.85328 12.2212C4.85328 12.1727 4.86355 12.1297 4.88408 12.0924C4.90524 12.0551 4.93386 12.0258 4.96995 12.0047C5.00666 11.9829 5.04773 11.972 5.09315 11.972C5.13919 11.972 5.17995 11.9826 5.21542 12.0037C5.25151 12.0243 5.27982 12.0535 5.30035 12.0915C5.32088 12.1288 5.33115 12.172 5.33115 12.2212C5.33115 12.2243 5.33084 12.2277 5.33022 12.2315C5.33022 12.2346 5.33022 12.238 5.33022 12.2417H4.90368V12.1923H5.29475L5.26862 12.2119C5.26862 12.1764 5.26084 12.145 5.24528 12.1176C5.23035 12.0896 5.20982 12.0678 5.18368 12.0523C5.15755 12.0367 5.12737 12.0289 5.09315 12.0289C5.05955 12.0289 5.02937 12.0367 5.00262 12.0523C4.97586 12.0678 4.95502 12.0896 4.94008 12.1176C4.92515 12.1456 4.91768 12.1776 4.91768 12.2137V12.224C4.91768 12.2613 4.92577 12.2943 4.94195 12.3229C4.95875 12.3509 4.98177 12.373 5.01102 12.3892C5.04088 12.4048 5.07479 12.4125 5.11275 12.4125C5.14262 12.4125 5.17031 12.4072 5.19582 12.3967C5.22195 12.3861 5.24435 12.3699 5.26302 12.3481L5.30035 12.3911C5.27857 12.4172 5.25119 12.4371 5.21822 12.4508C5.18586 12.4645 5.15008 12.4713 5.11088 12.4713ZM5.6303 12.4713C5.58425 12.4713 5.54879 12.4589 5.5239 12.434C5.49901 12.4091 5.48656 12.374 5.48656 12.3285V11.8684H5.55283V12.3248C5.55283 12.3534 5.55999 12.3755 5.5743 12.3911C5.58923 12.4066 5.61039 12.4144 5.63776 12.4144C5.66701 12.4144 5.69128 12.406 5.71056 12.3892L5.7339 12.4368C5.72083 12.4486 5.70496 12.4573 5.6863 12.4629C5.66825 12.4685 5.64959 12.4713 5.6303 12.4713ZM5.39883 12.0317V11.9767H5.70216V12.0317H5.39883Z" fill="#D02443"/>
<path d="M6.28054 12.4667L6.57921 11.8133H6.64734L6.94601 12.4667H6.87321L6.59881 11.8535H6.62681L6.35241 12.4667H6.28054ZM6.39814 12.2921L6.41867 12.2361H6.79854L6.81907 12.2921H6.39814ZM7.04942 12.4667V11.9767H7.11288V12.1101L7.10635 12.0868C7.12004 12.0495 7.14306 12.0212 7.17542 12.0019C7.20777 11.982 7.24791 11.972 7.29582 11.972V12.0364C7.29333 12.0364 7.29084 12.0364 7.28835 12.0364C7.28586 12.0358 7.28337 12.0355 7.28088 12.0355C7.22924 12.0355 7.18879 12.0513 7.15955 12.0831C7.13031 12.1142 7.11568 12.1587 7.11568 12.2165V12.4667H7.04942ZM7.62124 12.4713C7.57396 12.4713 7.53133 12.4608 7.49338 12.4396C7.45604 12.4178 7.42649 12.3883 7.40471 12.3509C7.38293 12.313 7.37204 12.2697 7.37204 12.2212C7.37204 12.172 7.38293 12.1288 7.40471 12.0915C7.42649 12.0541 7.45604 12.0249 7.49338 12.0037C7.53071 11.9826 7.57333 11.972 7.62124 11.972C7.66978 11.972 7.71271 11.9826 7.75004 12.0037C7.788 12.0249 7.81756 12.0541 7.83871 12.0915C7.86049 12.1288 7.87138 12.172 7.87138 12.2212C7.87138 12.2697 7.86049 12.313 7.83871 12.3509C7.81756 12.3883 7.788 12.4178 7.75004 12.4396C7.71209 12.4608 7.66916 12.4713 7.62124 12.4713ZM7.62124 12.4125C7.65671 12.4125 7.68813 12.4048 7.71551 12.3892C7.74289 12.373 7.76436 12.3506 7.77991 12.322C7.79609 12.2928 7.80418 12.2592 7.80418 12.2212C7.80418 12.1826 7.79609 12.149 7.77991 12.1204C7.76436 12.0918 7.74289 12.0697 7.71551 12.0541C7.68813 12.038 7.65702 12.0299 7.62218 12.0299C7.58733 12.0299 7.55622 12.038 7.52884 12.0541C7.50147 12.0697 7.47969 12.0918 7.46351 12.1204C7.44733 12.149 7.43924 12.1826 7.43924 12.2212C7.43924 12.2592 7.44733 12.2928 7.46351 12.322C7.47969 12.3506 7.50147 12.373 7.52884 12.3892C7.55622 12.4048 7.58702 12.4125 7.62124 12.4125ZM8.62827 11.972C8.66809 11.972 8.70262 11.9798 8.73187 11.9953C8.76173 12.0103 8.78476 12.0333 8.80093 12.0644C8.81773 12.0955 8.82613 12.1347 8.82613 12.182V12.4667H8.75987V12.1885C8.75987 12.1369 8.74742 12.098 8.72253 12.0719C8.69827 12.0451 8.66373 12.0317 8.61893 12.0317C8.58533 12.0317 8.55609 12.0389 8.5312 12.0532C8.50693 12.0669 8.48796 12.0871 8.47427 12.1139C8.4612 12.14 8.45467 12.1717 8.45467 12.2091V12.4667H8.3884V12.1885C8.3884 12.1369 8.37596 12.098 8.35107 12.0719C8.32618 12.0451 8.29133 12.0317 8.24653 12.0317C8.21356 12.0317 8.18462 12.0389 8.15973 12.0532C8.13484 12.0669 8.11556 12.0871 8.10187 12.1139C8.0888 12.14 8.08227 12.1717 8.08227 12.2091V12.4667H8.016V11.9767H8.07947V12.1092L8.0692 12.0859C8.08413 12.0504 8.10809 12.0227 8.14107 12.0028C8.17467 11.9823 8.21418 11.972 8.2596 11.972C8.30751 11.972 8.34827 11.9841 8.38187 12.0084C8.41547 12.032 8.43724 12.0678 8.4472 12.1157L8.42107 12.1055C8.43538 12.0656 8.46058 12.0336 8.49667 12.0093C8.53338 11.9844 8.57724 11.972 8.62827 11.972ZM9.22331 12.4713C9.17229 12.4713 9.12749 12.4608 9.08891 12.4396C9.05033 12.4178 9.02015 12.3883 8.99838 12.3509C8.9766 12.313 8.96571 12.2697 8.96571 12.2212C8.96571 12.1727 8.97598 12.1297 8.99651 12.0924C9.01767 12.0551 9.04629 12.0258 9.08238 12.0047C9.11909 11.9829 9.16015 11.972 9.20558 11.972C9.25162 11.972 9.29238 11.9826 9.32784 12.0037C9.36393 12.0243 9.39224 12.0535 9.41278 12.0915C9.43331 12.1288 9.44358 12.172 9.44358 12.2212C9.44358 12.2243 9.44327 12.2277 9.44264 12.2315C9.44264 12.2346 9.44264 12.238 9.44264 12.2417H9.01611V12.1923H9.40718L9.38104 12.2119C9.38104 12.1764 9.37327 12.145 9.35771 12.1176C9.34278 12.0896 9.32224 12.0678 9.29611 12.0523C9.26998 12.0367 9.2398 12.0289 9.20558 12.0289C9.17198 12.0289 9.1418 12.0367 9.11504 12.0523C9.08829 12.0678 9.06744 12.0896 9.05251 12.1176C9.03758 12.1456 9.03011 12.1776 9.03011 12.2137V12.224C9.03011 12.2613 9.0382 12.2943 9.05438 12.3229C9.07118 12.3509 9.0942 12.373 9.12344 12.3892C9.15331 12.4048 9.18722 12.4125 9.22518 12.4125C9.25504 12.4125 9.28273 12.4072 9.30824 12.3967C9.33438 12.3861 9.35678 12.3699 9.37544 12.3481L9.41278 12.3911C9.391 12.4172 9.36362 12.4371 9.33064 12.4508C9.29829 12.4645 9.26251 12.4713 9.22331 12.4713ZM9.71939 12.4713C9.67895 12.4713 9.64068 12.4657 9.60459 12.4545C9.5685 12.4427 9.54019 12.4281 9.51966 12.4107L9.54953 12.3584C9.56944 12.3733 9.59495 12.3864 9.62606 12.3976C9.65717 12.4082 9.68984 12.4135 9.72406 12.4135C9.77073 12.4135 9.80433 12.4063 9.82486 12.392C9.84539 12.3771 9.85566 12.3575 9.85566 12.3332C9.85566 12.3152 9.84975 12.3012 9.83793 12.2912C9.82673 12.2806 9.81179 12.2728 9.79313 12.2679C9.77446 12.2623 9.75361 12.2576 9.73059 12.2539C9.70757 12.2501 9.68455 12.2458 9.66153 12.2408C9.63913 12.2358 9.61859 12.2287 9.59993 12.2193C9.58126 12.2094 9.56601 12.196 9.55419 12.1792C9.54299 12.1624 9.53739 12.14 9.53739 12.112C9.53739 12.0852 9.54486 12.0613 9.55979 12.0401C9.57473 12.019 9.5965 12.0025 9.62513 11.9907C9.65437 11.9782 9.68984 11.972 9.73153 11.972C9.76326 11.972 9.79499 11.9764 9.82673 11.9851C9.85846 11.9932 9.88459 12.004 9.90513 12.0177L9.87619 12.0709C9.85441 12.056 9.83108 12.0454 9.80619 12.0392C9.7813 12.0324 9.75641 12.0289 9.73153 12.0289C9.68735 12.0289 9.65468 12.0367 9.63353 12.0523C9.61299 12.0672 9.60273 12.0865 9.60273 12.1101C9.60273 12.1288 9.60833 12.1434 9.61953 12.154C9.63135 12.1646 9.64659 12.173 9.66526 12.1792C9.68455 12.1848 9.70539 12.1895 9.72779 12.1932C9.75081 12.1969 9.77353 12.2016 9.79593 12.2072C9.81895 12.2122 9.83979 12.2193 9.85846 12.2287C9.87775 12.2374 9.89299 12.2501 9.90419 12.2669C9.91601 12.2831 9.92193 12.3046 9.92193 12.3313C9.92193 12.36 9.91384 12.3848 9.89766 12.406C9.8821 12.4265 9.85908 12.4427 9.82859 12.4545C9.79873 12.4657 9.76233 12.4713 9.71939 12.4713Z" fill="#FFAD1B"/>
<path d="M10.701 12.4667V11.8731H10.4714V11.8133H10.9997V11.8731H10.7701V12.4667H10.701ZM11.2624 12.4713C11.2114 12.4713 11.1666 12.4608 11.128 12.4396C11.0894 12.4178 11.0593 12.3883 11.0375 12.3509C11.0157 12.313 11.0048 12.2697 11.0048 12.2212C11.0048 12.1727 11.0151 12.1297 11.0356 12.0924C11.0568 12.0551 11.0854 12.0258 11.1215 12.0047C11.1582 11.9829 11.1993 11.972 11.2447 11.972C11.2907 11.972 11.3315 11.9826 11.367 12.0037C11.403 12.0243 11.4314 12.0535 11.4519 12.0915C11.4724 12.1288 11.4827 12.172 11.4827 12.2212C11.4827 12.2243 11.4824 12.2277 11.4818 12.2315C11.4818 12.2346 11.4818 12.238 11.4818 12.2417H11.0552V12.1923H11.4463L11.4202 12.2119C11.4202 12.1764 11.4124 12.145 11.3968 12.1176C11.3819 12.0896 11.3614 12.0678 11.3352 12.0523C11.3091 12.0367 11.2789 12.0289 11.2447 12.0289C11.2111 12.0289 11.1809 12.0367 11.1542 12.0523C11.1274 12.0678 11.1066 12.0896 11.0916 12.1176C11.0767 12.1456 11.0692 12.1776 11.0692 12.2137V12.224C11.0692 12.2613 11.0773 12.2943 11.0935 12.3229C11.1103 12.3509 11.1333 12.373 11.1626 12.3892C11.1924 12.4048 11.2263 12.4125 11.2643 12.4125C11.2942 12.4125 11.3218 12.4072 11.3474 12.3967C11.3735 12.3861 11.3959 12.3699 11.4146 12.3481L11.4519 12.3911C11.4301 12.4172 11.4027 12.4371 11.3698 12.4508C11.3374 12.4645 11.3016 12.4713 11.2624 12.4713ZM11.877 11.972C11.9169 11.972 11.9517 11.9798 11.9816 11.9953C12.0121 12.0103 12.0357 12.0333 12.0525 12.0644C12.0699 12.0955 12.0786 12.1347 12.0786 12.182V12.4667H12.0124V12.1885C12.0124 12.1369 11.9993 12.098 11.9732 12.0719C11.9477 12.0451 11.9116 12.0317 11.8649 12.0317C11.8301 12.0317 11.7996 12.0389 11.7734 12.0532C11.7479 12.0669 11.728 12.0871 11.7137 12.1139C11.7 12.14 11.6932 12.1717 11.6932 12.2091V12.4667H11.6269V11.9767H11.6904V12.1111L11.6801 12.0859C11.6957 12.0504 11.7206 12.0227 11.7548 12.0028C11.789 11.9823 11.8298 11.972 11.877 11.972ZM12.4219 12.4713C12.3759 12.4713 12.3404 12.4589 12.3155 12.434C12.2906 12.4091 12.2782 12.374 12.2782 12.3285V11.8684H12.3444V12.3248C12.3444 12.3534 12.3516 12.3755 12.3659 12.3911C12.3808 12.4066 12.402 12.4144 12.4294 12.4144C12.4586 12.4144 12.4829 12.406 12.5022 12.3892L12.5255 12.4368C12.5124 12.4486 12.4966 12.4573 12.4779 12.4629C12.4599 12.4685 12.4412 12.4713 12.4219 12.4713ZM12.1904 12.0317V11.9767H12.4938V12.0317H12.1904ZM12.9625 12.4667V12.3584L12.9597 12.3407V12.1596C12.9597 12.1179 12.9479 12.0859 12.9243 12.0635C12.9012 12.0411 12.8667 12.0299 12.8207 12.0299C12.7889 12.0299 12.7588 12.0352 12.7301 12.0457C12.7015 12.0563 12.6772 12.0703 12.6573 12.0877L12.6275 12.0383C12.6524 12.0171 12.6822 12.0009 12.7171 11.9897C12.7519 11.9779 12.7886 11.972 12.8272 11.972C12.8907 11.972 12.9395 11.9879 12.9737 12.0196C13.0086 12.0507 13.026 12.0983 13.026 12.1624V12.4667H12.9625ZM12.7936 12.4713C12.7569 12.4713 12.7248 12.4654 12.6975 12.4536C12.6707 12.4412 12.6502 12.4244 12.6359 12.4032C12.6216 12.3814 12.6144 12.3565 12.6144 12.3285C12.6144 12.303 12.6203 12.28 12.6321 12.2595C12.6446 12.2383 12.6645 12.2215 12.6919 12.2091C12.7199 12.196 12.7572 12.1895 12.8039 12.1895H12.9728V12.2389H12.8057C12.7584 12.2389 12.7255 12.2473 12.7068 12.2641C12.6888 12.2809 12.6797 12.3018 12.6797 12.3267C12.6797 12.3547 12.6906 12.3771 12.7124 12.3939C12.7342 12.4107 12.7647 12.4191 12.8039 12.4191C12.8412 12.4191 12.8732 12.4107 12.9 12.3939C12.9274 12.3764 12.9473 12.3516 12.9597 12.3192L12.9747 12.3649C12.9622 12.3973 12.9404 12.4231 12.9093 12.4424C12.8788 12.4617 12.8403 12.4713 12.7936 12.4713ZM13.3703 12.4713C13.3242 12.4713 13.2887 12.4589 13.2639 12.434C13.239 12.4091 13.2265 12.374 13.2265 12.3285V11.8684H13.2928V12.3248C13.2928 12.3534 13.2999 12.3755 13.3143 12.3911C13.3292 12.4066 13.3503 12.4144 13.3777 12.4144C13.407 12.4144 13.4312 12.406 13.4505 12.3892L13.4739 12.4368C13.4608 12.4486 13.4449 12.4573 13.4263 12.4629C13.4082 12.4685 13.3895 12.4713 13.3703 12.4713ZM13.1388 12.0317V11.9767H13.4421V12.0317H13.1388ZM13.6038 12.4667V11.9767H13.6701V12.4667H13.6038ZM13.6374 11.8684C13.6237 11.8684 13.6122 11.8637 13.6029 11.8544C13.5936 11.8451 13.5889 11.8339 13.5889 11.8208C13.5889 11.8077 13.5936 11.7968 13.6029 11.7881C13.6122 11.7788 13.6237 11.7741 13.6374 11.7741C13.6511 11.7741 13.6626 11.7785 13.672 11.7872C13.6813 11.7959 13.686 11.8068 13.686 11.8199C13.686 11.8336 13.6813 11.8451 13.672 11.8544C13.6632 11.8637 13.6517 11.8684 13.6374 11.8684ZM14.0635 12.4713C14.0163 12.4713 13.9736 12.4608 13.9357 12.4396C13.8983 12.4178 13.8688 12.3883 13.847 12.3509C13.8252 12.313 13.8143 12.2697 13.8143 12.2212C13.8143 12.172 13.8252 12.1288 13.847 12.0915C13.8688 12.0541 13.8983 12.0249 13.9357 12.0037C13.973 11.9826 14.0156 11.972 14.0635 11.972C14.1121 11.972 14.155 11.9826 14.1923 12.0037C14.2303 12.0249 14.2599 12.0541 14.281 12.0915C14.3028 12.1288 14.3137 12.172 14.3137 12.2212C14.3137 12.2697 14.3028 12.313 14.281 12.3509C14.2599 12.3883 14.2303 12.4178 14.1923 12.4396C14.1544 12.4608 14.1115 12.4713 14.0635 12.4713ZM14.0635 12.4125C14.099 12.4125 14.1304 12.4048 14.1578 12.3892C14.1852 12.373 14.2067 12.3506 14.2222 12.322C14.2384 12.2928 14.2465 12.2592 14.2465 12.2212C14.2465 12.1826 14.2384 12.149 14.2222 12.1204C14.2067 12.0918 14.1852 12.0697 14.1578 12.0541C14.1304 12.038 14.0993 12.0299 14.0645 12.0299C14.0296 12.0299 13.9985 12.038 13.9711 12.0541C13.9438 12.0697 13.922 12.0918 13.9058 12.1204C13.8896 12.149 13.8815 12.1826 13.8815 12.2212C13.8815 12.2592 13.8896 12.2928 13.9058 12.322C13.922 12.3506 13.9438 12.373 13.9711 12.3892C13.9985 12.4048 14.0293 12.4125 14.0635 12.4125ZM14.7084 11.972C14.7483 11.972 14.7831 11.9798 14.813 11.9953C14.8435 12.0103 14.8671 12.0333 14.8839 12.0644C14.9013 12.0955 14.91 12.1347 14.91 12.182V12.4667H14.8438V12.1885C14.8438 12.1369 14.8307 12.098 14.8046 12.0719C14.7791 12.0451 14.743 12.0317 14.6963 12.0317C14.6615 12.0317 14.631 12.0389 14.6048 12.0532C14.5793 12.0669 14.5594 12.0871 14.5451 12.1139C14.5314 12.14 14.5246 12.1717 14.5246 12.2091V12.4667H14.4583V11.9767H14.5218V12.1111L14.5115 12.0859C14.5271 12.0504 14.5519 12.0227 14.5862 12.0028C14.6204 11.9823 14.6611 11.972 14.7084 11.972ZM15.23 12.4713C15.1895 12.4713 15.1512 12.4657 15.1152 12.4545C15.0791 12.4427 15.0508 12.4281 15.0302 12.4107L15.0601 12.3584C15.08 12.3733 15.1055 12.3864 15.1366 12.3976C15.1677 12.4082 15.2004 12.4135 15.2346 12.4135C15.2813 12.4135 15.3149 12.4063 15.3354 12.392C15.356 12.3771 15.3662 12.3575 15.3662 12.3332C15.3662 12.3152 15.3603 12.3012 15.3485 12.2912C15.3373 12.2806 15.3224 12.2728 15.3037 12.2679C15.285 12.2623 15.2642 12.2576 15.2412 12.2539C15.2181 12.2501 15.1951 12.2458 15.1721 12.2408C15.1497 12.2358 15.1292 12.2287 15.1105 12.2193C15.0918 12.2094 15.0766 12.196 15.0648 12.1792C15.0536 12.1624 15.048 12.14 15.048 12.112C15.048 12.0852 15.0554 12.0613 15.0704 12.0401C15.0853 12.019 15.1071 12.0025 15.1357 11.9907C15.1649 11.9782 15.2004 11.972 15.2421 11.972C15.2738 11.972 15.3056 11.9764 15.3373 11.9851C15.369 11.9932 15.3952 12.004 15.4157 12.0177L15.3868 12.0709C15.365 12.056 15.3416 12.0454 15.3168 12.0392C15.2919 12.0324 15.267 12.0289 15.2421 12.0289C15.1979 12.0289 15.1652 12.0367 15.1441 12.0523C15.1236 12.0672 15.1133 12.0865 15.1133 12.1101C15.1133 12.1288 15.1189 12.1434 15.1301 12.154C15.1419 12.1646 15.1572 12.173 15.1758 12.1792C15.1951 12.1848 15.216 12.1895 15.2384 12.1932C15.2614 12.1969 15.2841 12.2016 15.3065 12.2072C15.3295 12.2122 15.3504 12.2193 15.369 12.2287C15.3883 12.2374 15.4036 12.2501 15.4148 12.2669C15.4266 12.2831 15.4325 12.3046 15.4325 12.3313C15.4325 12.36 15.4244 12.3848 15.4082 12.406C15.3927 12.4265 15.3696 12.4427 15.3392 12.4545C15.3093 12.4657 15.2729 12.4713 15.23 12.4713Z" fill="#828A8C"/>
<path d="M2.0799 7.67333H4.24657V8.66H2.0799V7.67333ZM2.17324 9.51333H4.61324V10.5333H0.866569V5.86667H4.52657V6.88667H2.17324V9.51333Z" fill="#D02443"/>
<path d="M5.31907 10.5333L7.37907 5.86667H8.67907L10.7457 10.5333H9.3724L7.75907 6.51333H8.27907L6.66574 10.5333H5.31907ZM6.44574 9.62667L6.78574 8.65333H9.06574L9.40574 9.62667H6.44574Z" fill="#FFAD1B"/>
<path d="M12.6466 10.5333V6.91333H11.2133V5.86667H15.3933V6.91333H13.9666V10.5333H12.6466Z" fill="#828A8C"/>
<path d="M0.844316 5.33334V3.93334H1.39032C1.51298 3.93334 1.61765 3.95267 1.70432 3.99134C1.79098 4.03 1.85765 4.086 1.90432 4.15934C1.95098 4.23267 1.97432 4.32 1.97432 4.42134C1.97432 4.52267 1.95098 4.61 1.90432 4.68334C1.85765 4.75534 1.79098 4.81067 1.70432 4.84934C1.61765 4.888 1.51298 4.90734 1.39032 4.90734H0.954316L1.04432 4.81534V5.33334H0.844316ZM1.78032 5.33334L1.42432 4.82534H1.63832L1.99832 5.33334H1.78032ZM1.04432 4.83534L0.954316 4.73734H1.38432C1.51232 4.73734 1.60898 4.71 1.67432 4.65534C1.74098 4.59934 1.77432 4.52134 1.77432 4.42134C1.77432 4.32134 1.74098 4.244 1.67432 4.18934C1.60898 4.13467 1.51232 4.10734 1.38432 4.10734H0.954316L1.04432 4.00734V4.83534ZM2.59944 4.53734H3.31944V4.70734H2.59944V4.53734ZM2.61744 5.15934H3.43344V5.33334H2.41744V3.93334H3.40544V4.10734H2.61744V5.15934ZM4.28529 5.34934C4.17862 5.34934 4.07662 5.33334 3.97929 5.30134C3.88195 5.268 3.80529 5.22534 3.74929 5.17334L3.82329 5.01734C3.87662 5.064 3.94462 5.10267 4.02729 5.13334C4.10995 5.164 4.19595 5.17934 4.28529 5.17934C4.36662 5.17934 4.43262 5.17 4.48329 5.15134C4.53395 5.13267 4.57129 5.10734 4.59529 5.07534C4.61929 5.042 4.63129 5.00467 4.63129 4.96334C4.63129 4.91534 4.61529 4.87667 4.58329 4.84734C4.55262 4.818 4.51195 4.79467 4.46129 4.77734C4.41195 4.75867 4.35729 4.74267 4.29729 4.72934C4.23729 4.716 4.17662 4.70067 4.11529 4.68334C4.05529 4.66467 3.99995 4.64134 3.94929 4.61334C3.89995 4.58534 3.85995 4.548 3.82929 4.50134C3.79862 4.45334 3.78329 4.392 3.78329 4.31734C3.78329 4.24534 3.80195 4.17934 3.83929 4.11934C3.87795 4.058 3.93662 4.00934 4.01529 3.97334C4.09529 3.936 4.19662 3.91734 4.31929 3.91734C4.40062 3.91734 4.48129 3.928 4.56129 3.94934C4.64129 3.97067 4.71062 4.00134 4.76929 4.04134L4.70329 4.20134C4.64329 4.16134 4.57995 4.13267 4.51329 4.11534C4.44662 4.09667 4.38195 4.08734 4.31929 4.08734C4.24062 4.08734 4.17595 4.09734 4.12529 4.11734C4.07462 4.13734 4.03729 4.164 4.01329 4.19734C3.99062 4.23067 3.97929 4.268 3.97929 4.30934C3.97929 4.35867 3.99462 4.398 4.02529 4.42734C4.05729 4.45667 4.09795 4.48 4.14729 4.49734C4.19795 4.51467 4.25329 4.53067 4.31329 4.54534C4.37329 4.55867 4.43329 4.574 4.49329 4.59134C4.55462 4.60867 4.60995 4.63134 4.65929 4.65934C4.70995 4.68734 4.75062 4.72467 4.78129 4.77134C4.81195 4.818 4.82729 4.878 4.82729 4.95134C4.82729 5.022 4.80795 5.088 4.76929 5.14934C4.73062 5.20934 4.67062 5.258 4.58929 5.29534C4.50929 5.33134 4.40795 5.34934 4.28529 5.34934ZM5.49794 5.33334V4.10734H5.01794V3.93334H6.17594V4.10734H5.69594V5.33334H5.49794ZM6.23146 5.33334L6.86546 3.93334H7.06346L7.69946 5.33334H7.48946L6.92346 4.04534H7.00346L6.43746 5.33334H6.23146ZM6.50146 4.98334L6.55546 4.82334H7.34346L7.40146 4.98334H6.50146ZM8.579 5.34934C8.395 5.34934 8.25034 5.29667 8.145 5.19134C8.03967 5.086 7.987 4.932 7.987 4.72934V3.93334H8.187V4.72134C8.187 4.87734 8.221 4.99134 8.289 5.06334C8.35834 5.13534 8.45567 5.17134 8.581 5.17134C8.70767 5.17134 8.805 5.13534 8.873 5.06334C8.94234 4.99134 8.977 4.87734 8.977 4.72134V3.93334H9.171V4.72934C9.171 4.932 9.11834 5.086 9.013 5.19134C8.909 5.29667 8.76434 5.34934 8.579 5.34934ZM9.70104 5.33334V3.93334H10.247C10.3697 3.93334 10.4744 3.95267 10.561 3.99134C10.6477 4.03 10.7144 4.086 10.761 4.15934C10.8077 4.23267 10.831 4.32 10.831 4.42134C10.831 4.52267 10.8077 4.61 10.761 4.68334C10.7144 4.75534 10.6477 4.81067 10.561 4.84934C10.4744 4.888 10.3697 4.90734 10.247 4.90734H9.81104L9.90104 4.81534V5.33334H9.70104ZM10.637 5.33334L10.281 4.82534H10.495L10.855 5.33334H10.637ZM9.90104 4.83534L9.81104 4.73734H10.241C10.369 4.73734 10.4657 4.71 10.531 4.65534C10.5977 4.59934 10.631 4.52134 10.631 4.42134C10.631 4.32134 10.5977 4.244 10.531 4.18934C10.4657 4.13467 10.369 4.10734 10.241 4.10734H9.81104L9.90104 4.00734V4.83534ZM11.0622 5.33334L11.6962 3.93334H11.8942L12.5302 5.33334H12.3202L11.7542 4.04534H11.8342L11.2682 5.33334H11.0622ZM11.3322 4.98334L11.3862 4.82334H12.1742L12.2322 4.98334H11.3322ZM12.859 5.33334V3.93334H13.023L13.949 5.08334H13.863V3.93334H14.063V5.33334H13.899L12.973 4.18334H13.059V5.33334H12.859ZM14.8801 5.33334V4.10734H14.4001V3.93334H15.5581V4.10734H15.0781V5.33334H14.8801Z" fill="#303839"/>
</g>
<defs>
<clipPath id="clip0_10_953">
<rect width="16" height="16" fill="white"/>
</clipPath>
</defs>
</svg>
