<svg width="75" height="46" viewBox="0 0 75 46" fill="none" xmlns="http://www.w3.org/2000/svg">
<path d="M2.29141 43.1877H3.98818V43.4766H2.29141V43.1877ZM2.3281 44.6689H4.25874V44.9624H1.98875V41.7523H4.18996V42.0458H2.3281V44.6689ZM5.64428 44.9853C5.44556 44.9853 5.25754 44.9578 5.08022 44.9028C4.9029 44.8447 4.7638 44.7729 4.66291 44.6873L4.80966 44.4304C4.90749 44.5038 5.03283 44.568 5.1857 44.623C5.33856 44.675 5.49906 44.701 5.66721 44.701C5.8965 44.701 6.06159 44.6659 6.16248 44.5955C6.26337 44.5222 6.31382 44.4259 6.31382 44.3066C6.31382 44.218 6.28477 44.1492 6.22668 44.1003C6.17165 44.0483 6.09828 44.0101 6.00656 43.9856C5.91485 43.9581 5.81243 43.9352 5.69931 43.9168C5.58619 43.8985 5.47308 43.8771 5.35996 43.8526C5.2499 43.8282 5.14901 43.793 5.05729 43.7472C4.96557 43.6982 4.89067 43.6325 4.83258 43.55C4.77755 43.4674 4.75004 43.3574 4.75004 43.2198C4.75004 43.0883 4.78673 42.9706 4.8601 42.8667C4.93347 42.7627 5.04048 42.6817 5.18111 42.6236C5.3248 42.5625 5.49906 42.5319 5.7039 42.5319C5.85982 42.5319 6.01574 42.5533 6.17165 42.5961C6.32757 42.6358 6.45598 42.6893 6.55687 42.7566L6.41471 43.018C6.3077 42.9446 6.19306 42.8927 6.07077 42.8621C5.94848 42.8285 5.82619 42.8116 5.7039 42.8116C5.48683 42.8116 5.32633 42.8499 5.22238 42.9263C5.12149 42.9997 5.07105 43.0944 5.07105 43.2106C5.07105 43.3023 5.09856 43.3742 5.15359 43.4261C5.21168 43.4781 5.28658 43.5194 5.3783 43.55C5.47308 43.5775 5.57549 43.6004 5.68555 43.6187C5.79867 43.6371 5.91026 43.66 6.02032 43.6875C6.13344 43.712 6.23586 43.7472 6.32757 43.793C6.42235 43.8358 6.49725 43.8985 6.55228 43.981C6.61037 44.0605 6.63941 44.166 6.63941 44.2975C6.63941 44.4381 6.59967 44.5604 6.52018 44.6643C6.44375 44.7652 6.33063 44.8447 6.18083 44.9028C6.03408 44.9578 5.85523 44.9853 5.64428 44.9853ZM8.04397 44.9853C7.81774 44.9853 7.64348 44.9242 7.52119 44.8019C7.3989 44.6796 7.33775 44.5069 7.33775 44.2837V42.0229H7.66335V44.2654C7.66335 44.406 7.69851 44.5145 7.76882 44.5909C7.8422 44.6674 7.94614 44.7056 8.08066 44.7056C8.22435 44.7056 8.34358 44.6643 8.43836 44.5818L8.553 44.8157C8.4888 44.8737 8.41084 44.9165 8.31912 44.9441C8.23046 44.9716 8.13875 44.9853 8.04397 44.9853ZM6.90668 42.8254V42.5548H8.39708V42.8254H6.90668ZM10.7003 44.9624V44.4304L10.6866 44.3433V43.4537C10.6866 43.2488 10.6285 43.0914 10.5123 42.9813C10.3992 42.8713 10.2295 42.8162 10.0033 42.8162C9.84736 42.8162 9.69909 42.8422 9.55845 42.8942C9.41782 42.9462 9.29859 43.0149 9.20076 43.1005L9.05401 42.8575C9.1763 42.7535 9.32305 42.6741 9.49425 42.619C9.66546 42.5609 9.84583 42.5319 10.0354 42.5319C10.3472 42.5319 10.5872 42.6099 10.7554 42.7658C10.9266 42.9186 11.0122 43.1525 11.0122 43.4674V44.9624H10.7003ZM9.87029 44.9853C9.68991 44.9853 9.53247 44.9563 9.39795 44.8982C9.26649 44.8371 9.1656 44.7545 9.09528 44.6506C9.02496 44.5436 8.98981 44.4213 8.98981 44.2837C8.98981 44.1583 9.01885 44.0452 9.07694 43.9443C9.13808 43.8404 9.23591 43.7579 9.37043 43.6967C9.50801 43.6325 9.69144 43.6004 9.92073 43.6004H10.7508V43.8435H9.92991C9.69756 43.8435 9.53552 43.8847 9.44381 43.9673C9.35515 44.0498 9.31082 44.1522 9.31082 44.2745C9.31082 44.4121 9.36432 44.5222 9.47132 44.6047C9.57832 44.6873 9.72813 44.7285 9.92073 44.7285C10.1042 44.7285 10.2616 44.6873 10.3931 44.6047C10.5276 44.5191 10.6254 44.3968 10.6866 44.2378L10.7599 44.4625C10.6988 44.6215 10.5918 44.7484 10.4389 44.8432C10.2891 44.9379 10.0996 44.9853 9.87029 44.9853ZM14.9507 42.5319C15.1464 42.5319 15.316 42.5701 15.4597 42.6465C15.6065 42.7199 15.7196 42.833 15.7991 42.9859C15.8816 43.1388 15.9229 43.3314 15.9229 43.5637V44.9624H15.5973V43.5958C15.5973 43.3421 15.5362 43.151 15.4139 43.0226C15.2946 42.8911 15.125 42.8254 14.9048 42.8254C14.7398 42.8254 14.5961 42.8606 14.4738 42.9309C14.3545 42.9981 14.2613 43.0975 14.194 43.2289C14.1298 43.3574 14.0977 43.5133 14.0977 43.6967V44.9624H13.7721V43.5958C13.7721 43.3421 13.711 43.151 13.5887 43.0226C13.4664 42.8911 13.2952 42.8254 13.0751 42.8254C12.9131 42.8254 12.7709 42.8606 12.6486 42.9309C12.5263 42.9981 12.4315 43.0975 12.3643 43.2289C12.3001 43.3574 12.268 43.5133 12.268 43.6967V44.9624H11.9424V42.5548H12.2542V43.206L12.2038 43.0914C12.2771 42.9171 12.3949 42.7811 12.5569 42.6832C12.722 42.5823 12.9161 42.5319 13.1393 42.5319C13.3747 42.5319 13.5749 42.5915 13.74 42.7107C13.9051 42.8269 14.0121 43.0027 14.061 43.2381L13.9326 43.1877C14.003 42.992 14.1268 42.8346 14.3041 42.7153C14.4845 42.593 14.7 42.5319 14.9507 42.5319ZM16.8518 44.9624V42.5548H17.1773V44.9624H16.8518ZM17.0168 42.0229C16.9496 42.0229 16.893 41.9999 16.8472 41.9541C16.8013 41.9082 16.7784 41.8532 16.7784 41.789C16.7784 41.7248 16.8013 41.6713 16.8472 41.6285C16.893 41.5826 16.9496 41.5597 17.0168 41.5597C17.0841 41.5597 17.1407 41.5811 17.1865 41.6239C17.2324 41.6667 17.2553 41.7202 17.2553 41.7844C17.2553 41.8517 17.2324 41.9082 17.1865 41.9541C17.1437 41.9999 17.0872 42.0229 17.0168 42.0229ZM19.3582 42.5319C19.5538 42.5319 19.725 42.5701 19.8718 42.6465C20.0216 42.7199 20.1378 42.833 20.2203 42.9859C20.3059 43.1388 20.3487 43.3314 20.3487 43.5637V44.9624H20.0231V43.5958C20.0231 43.3421 19.9589 43.151 19.8305 43.0226C19.7052 42.8911 19.5279 42.8254 19.2986 42.8254C19.1274 42.8254 18.9775 42.8606 18.8491 42.9309C18.7238 42.9981 18.626 43.0975 18.5556 43.2289C18.4884 43.3574 18.4548 43.5133 18.4548 43.6967V44.9624H18.1292V42.5548H18.441V43.2152L18.3906 43.0914C18.467 42.9171 18.5893 42.7811 18.7574 42.6832C18.9256 42.5823 19.1258 42.5319 19.3582 42.5319ZM22.2967 44.9853C22.046 44.9853 21.8259 44.9334 21.6363 44.8294C21.4468 44.7224 21.2985 44.5772 21.1915 44.3938C21.0845 44.2073 21.031 43.9948 21.031 43.7563C21.031 43.5179 21.0815 43.3069 21.1823 43.1235C21.2863 42.94 21.4269 42.7963 21.6042 42.6924C21.7846 42.5854 21.9864 42.5319 22.2096 42.5319C22.4358 42.5319 22.6361 42.5839 22.8103 42.6878C22.9876 42.7887 23.1267 42.9324 23.2276 43.1189C23.3285 43.3023 23.379 43.5148 23.379 43.7563C23.379 43.7716 23.3774 43.7884 23.3744 43.8068C23.3744 43.8221 23.3744 43.8389 23.3744 43.8572H21.2786V43.6142H23.2001L23.0717 43.7105C23.0717 43.5362 23.0335 43.3818 22.9571 43.2473C22.8837 43.1097 22.7828 43.0027 22.6544 42.9263C22.526 42.8499 22.3777 42.8116 22.2096 42.8116C22.0445 42.8116 21.8962 42.8499 21.7647 42.9263C21.6333 43.0027 21.5309 43.1097 21.4575 43.2473C21.3841 43.3849 21.3474 43.5423 21.3474 43.7196V43.7701C21.3474 43.9535 21.3872 44.1155 21.4667 44.2562C21.5492 44.3938 21.6623 44.5023 21.806 44.5818C21.9528 44.6582 22.1194 44.6964 22.3059 44.6964C22.4526 44.6964 22.5887 44.6704 22.714 44.6185C22.8424 44.5665 22.9525 44.487 23.0442 44.38L23.2276 44.5909C23.1206 44.7194 22.9861 44.8172 22.8241 44.8844C22.6651 44.9517 22.4893 44.9853 22.2967 44.9853ZM24.8488 44.9853C24.6226 44.9853 24.4483 44.9242 24.326 44.8019C24.2037 44.6796 24.1426 44.5069 24.1426 44.2837V42.0229H24.4682V44.2654C24.4682 44.406 24.5033 44.5145 24.5737 44.5909C24.647 44.6674 24.751 44.7056 24.8855 44.7056C25.0292 44.7056 25.1484 44.6643 25.2432 44.5818L25.3578 44.8157C25.2936 44.8737 25.2157 44.9165 25.124 44.9441C25.0353 44.9716 24.9436 44.9853 24.8488 44.9853ZM23.7115 42.8254V42.5548H25.2019V42.8254H23.7115Z" fill="#D02443"/>
<path d="M28.0437 44.9624L29.5112 41.7523H29.846L31.3134 44.9624H30.9557L29.6075 41.9495H29.7451L28.3968 44.9624H28.0437ZM28.6215 44.1048L28.7224 43.8297H30.5889L30.6898 44.1048H28.6215ZM31.8215 44.9624V42.5548H32.1334V43.2106L32.1013 43.096C32.1685 42.9125 32.2816 42.7734 32.4406 42.6786C32.5996 42.5808 32.7968 42.5319 33.0322 42.5319V42.8483C33.02 42.8483 33.0077 42.8483 32.9955 42.8483C32.9833 42.8453 32.971 42.8437 32.9588 42.8437C32.7051 42.8437 32.5063 42.9217 32.3627 43.0776C32.219 43.2305 32.1471 43.4491 32.1471 43.7334V44.9624H31.8215ZM34.6312 44.9853C34.3988 44.9853 34.1894 44.9334 34.0029 44.8294C33.8195 44.7224 33.6742 44.5772 33.5672 44.3938C33.4602 44.2073 33.4067 43.9948 33.4067 43.7563C33.4067 43.5148 33.4602 43.3023 33.5672 43.1189C33.6742 42.9355 33.8195 42.7918 34.0029 42.6878C34.1863 42.5839 34.3957 42.5319 34.6312 42.5319C34.8696 42.5319 35.0806 42.5839 35.264 42.6878C35.4505 42.7918 35.5957 42.9355 35.6997 43.1189C35.8067 43.3023 35.8602 43.5148 35.8602 43.7563C35.8602 43.9948 35.8067 44.2073 35.6997 44.3938C35.5957 44.5772 35.4505 44.7224 35.264 44.8294C35.0775 44.9334 34.8666 44.9853 34.6312 44.9853ZM34.6312 44.6964C34.8054 44.6964 34.9598 44.6582 35.0943 44.5818C35.2288 44.5023 35.3343 44.3922 35.4107 44.2516C35.4902 44.1079 35.53 43.9428 35.53 43.7563C35.53 43.5668 35.4902 43.4017 35.4107 43.261C35.3343 43.1204 35.2288 43.0119 35.0943 42.9355C34.9598 42.856 34.8069 42.8162 34.6357 42.8162C34.4645 42.8162 34.3117 42.856 34.1772 42.9355C34.0426 43.0119 33.9356 43.1204 33.8561 43.261C33.7767 43.4017 33.7369 43.5668 33.7369 43.7563C33.7369 43.9428 33.7767 44.1079 33.8561 44.2516C33.9356 44.3922 34.0426 44.5023 34.1772 44.5818C34.3117 44.6582 34.463 44.6964 34.6312 44.6964ZM39.5791 42.5319C39.7747 42.5319 39.9444 42.5701 40.0881 42.6465C40.2349 42.7199 40.348 42.833 40.4275 42.9859C40.51 43.1388 40.5513 43.3314 40.5513 43.5637V44.9624H40.2257V43.5958C40.2257 43.3421 40.1645 43.151 40.0422 43.0226C39.923 42.8911 39.7533 42.8254 39.5332 42.8254C39.3681 42.8254 39.2244 42.8606 39.1021 42.9309C38.9829 42.9981 38.8897 43.0975 38.8224 43.2289C38.7582 43.3574 38.7261 43.5133 38.7261 43.6967V44.9624H38.4005V43.5958C38.4005 43.3421 38.3394 43.151 38.2171 43.0226C38.0948 42.8911 37.9236 42.8254 37.7035 42.8254C37.5414 42.8254 37.3993 42.8606 37.277 42.9309C37.1547 42.9981 37.0599 43.0975 36.9927 43.2289C36.9284 43.3574 36.8963 43.5133 36.8963 43.6967V44.9624H36.5708V42.5548H36.8826V43.206L36.8321 43.0914C36.9055 42.9171 37.0232 42.7811 37.1853 42.6832C37.3503 42.5823 37.5445 42.5319 37.7677 42.5319C38.0031 42.5319 38.2033 42.5915 38.3684 42.7107C38.5335 42.8269 38.6405 43.0027 38.6894 43.2381L38.561 43.1877C38.6313 42.992 38.7551 42.8346 38.9325 42.7153C39.1128 42.593 39.3284 42.5319 39.5791 42.5319ZM42.5028 44.9853C42.2521 44.9853 42.032 44.9334 41.8424 44.8294C41.6529 44.7224 41.5046 44.5772 41.3976 44.3938C41.2906 44.2073 41.2371 43.9948 41.2371 43.7563C41.2371 43.5179 41.2875 43.3069 41.3884 43.1235C41.4924 42.94 41.633 42.7963 41.8103 42.6924C41.9907 42.5854 42.1925 42.5319 42.4156 42.5319C42.6419 42.5319 42.8421 42.5839 43.0164 42.6878C43.1937 42.7887 43.3328 42.9324 43.4337 43.1189C43.5346 43.3023 43.585 43.5148 43.585 43.7563C43.585 43.7716 43.5835 43.7884 43.5804 43.8068C43.5804 43.8221 43.5804 43.8389 43.5804 43.8572H41.4847V43.6142H43.4062L43.2778 43.7105C43.2778 43.5362 43.2396 43.3818 43.1631 43.2473C43.0898 43.1097 42.9889 43.0027 42.8605 42.9263C42.7321 42.8499 42.5838 42.8116 42.4156 42.8116C42.2506 42.8116 42.1023 42.8499 41.9708 42.9263C41.8394 43.0027 41.7369 43.1097 41.6636 43.2473C41.5902 43.3849 41.5535 43.5423 41.5535 43.7196V43.7701C41.5535 43.9535 41.5932 44.1155 41.6727 44.2562C41.7553 44.3938 41.8684 44.5023 42.0121 44.5818C42.1588 44.6582 42.3255 44.6964 42.5119 44.6964C42.6587 44.6964 42.7947 44.6704 42.9201 44.6185C43.0485 44.5665 43.1585 44.487 43.2503 44.38L43.4337 44.5909C43.3267 44.7194 43.1922 44.8172 43.0301 44.8844C42.8712 44.9517 42.6954 44.9853 42.5028 44.9853ZM44.9402 44.9853C44.7415 44.9853 44.5535 44.9578 44.3762 44.9028C44.1988 44.8447 44.0597 44.7729 43.9589 44.6873L44.1056 44.4304C44.2034 44.5038 44.3288 44.568 44.4816 44.623C44.6345 44.675 44.795 44.701 44.9632 44.701C45.1924 44.701 45.3575 44.6659 45.4584 44.5955C45.5593 44.5222 45.6098 44.4259 45.6098 44.3066C45.6098 44.218 45.5807 44.1492 45.5226 44.1003C45.4676 44.0483 45.3942 44.0101 45.3025 43.9856C45.2108 43.9581 45.1084 43.9352 44.9953 43.9168C44.8821 43.8985 44.769 43.8771 44.6559 43.8526C44.5458 43.8282 44.445 43.793 44.3532 43.7472C44.2615 43.6982 44.1866 43.6325 44.1285 43.55C44.0735 43.4674 44.046 43.3574 44.046 43.2198C44.046 43.0883 44.0827 42.9706 44.156 42.8667C44.2294 42.7627 44.3364 42.6817 44.4771 42.6236C44.6207 42.5625 44.795 42.5319 44.9998 42.5319C45.1558 42.5319 45.3117 42.5533 45.4676 42.5961C45.6235 42.6358 45.7519 42.6893 45.8528 42.7566L45.7107 43.018C45.6036 42.9446 45.489 42.8927 45.3667 42.8621C45.2444 42.8285 45.1221 42.8116 44.9998 42.8116C44.7828 42.8116 44.6223 42.8499 44.5183 42.9263C44.4174 42.9997 44.367 43.0944 44.367 43.2106C44.367 43.3023 44.3945 43.3742 44.4495 43.4261C44.5076 43.4781 44.5825 43.5194 44.6742 43.55C44.769 43.5775 44.8714 43.6004 44.9815 43.6187C45.0946 43.6371 45.2062 43.66 45.3163 43.6875C45.4294 43.712 45.5318 43.7472 45.6235 43.793C45.7183 43.8358 45.7932 43.8985 45.8482 43.981C45.9063 44.0605 45.9354 44.166 45.9354 44.2975C45.9354 44.4381 45.8956 44.5604 45.8161 44.6643C45.7397 44.7652 45.6266 44.8447 45.4768 44.9028C45.33 44.9578 45.1512 44.9853 44.9402 44.9853Z" fill="#FFAD1B"/>
<path d="M49.7633 44.9624V42.0458H48.6351V41.7523H51.2307V42.0458H50.1026V44.9624H49.7633ZM52.5218 44.9853C52.2711 44.9853 52.051 44.9334 51.8614 44.8294C51.6719 44.7224 51.5236 44.5772 51.4166 44.3938C51.3096 44.2073 51.2561 43.9948 51.2561 43.7563C51.2561 43.5179 51.3065 43.3069 51.4074 43.1235C51.5114 42.94 51.652 42.7963 51.8293 42.6924C52.0097 42.5854 52.2115 42.5319 52.4347 42.5319C52.6609 42.5319 52.8611 42.5839 53.0354 42.6878C53.2127 42.7887 53.3518 42.9324 53.4527 43.1189C53.5536 43.3023 53.6041 43.5148 53.6041 43.7563C53.6041 43.7716 53.6025 43.7884 53.5995 43.8068C53.5995 43.8221 53.5995 43.8389 53.5995 43.8572H51.5037V43.6142H53.4252L53.2968 43.7105C53.2968 43.5362 53.2586 43.3818 53.1822 43.2473C53.1088 43.1097 53.0079 43.0027 52.8795 42.9263C52.7511 42.8499 52.6028 42.8116 52.4347 42.8116C52.2696 42.8116 52.1213 42.8499 51.9898 42.9263C51.8584 43.0027 51.756 43.1097 51.6826 43.2473C51.6092 43.3849 51.5725 43.5423 51.5725 43.7196V43.7701C51.5725 43.9535 51.6123 44.1155 51.6918 44.2562C51.7743 44.3938 51.8874 44.5023 52.0311 44.5818C52.1779 44.6582 52.3445 44.6964 52.531 44.6964C52.6777 44.6964 52.8138 44.6704 52.9391 44.6185C53.0675 44.5665 53.1776 44.487 53.2693 44.38L53.4527 44.5909C53.3457 44.7194 53.2112 44.8172 53.0492 44.8844C52.8902 44.9517 52.7144 44.9853 52.5218 44.9853ZM55.5416 42.5319C55.7373 42.5319 55.9085 42.5701 56.0553 42.6465C56.2051 42.7199 56.3212 42.833 56.4038 42.9859C56.4894 43.1388 56.5322 43.3314 56.5322 43.5637V44.9624H56.2066V43.5958C56.2066 43.3421 56.1424 43.151 56.014 43.0226C55.8886 42.8911 55.7113 42.8254 55.482 42.8254C55.3108 42.8254 55.161 42.8606 55.0326 42.9309C54.9073 42.9981 54.8094 43.0975 54.7391 43.2289C54.6719 43.3574 54.6382 43.5133 54.6382 43.6967V44.9624H54.3126V42.5548H54.6245V43.2152L54.574 43.0914C54.6505 42.9171 54.7728 42.7811 54.9409 42.6832C55.109 42.5823 55.3093 42.5319 55.5416 42.5319ZM58.2188 44.9853C57.9925 44.9853 57.8183 44.9242 57.696 44.8019C57.5737 44.6796 57.5126 44.5069 57.5126 44.2837V42.0229H57.8382V44.2654C57.8382 44.406 57.8733 44.5145 57.9436 44.5909C58.017 44.6674 58.121 44.7056 58.2555 44.7056C58.3992 44.7056 58.5184 44.6643 58.6132 44.5818L58.7278 44.8157C58.6636 44.8737 58.5857 44.9165 58.4939 44.9441C58.4053 44.9716 58.3136 44.9853 58.2188 44.9853ZM57.0815 42.8254V42.5548H58.5719V42.8254H57.0815ZM60.8751 44.9624V44.4304L60.8614 44.3433V43.4537C60.8614 43.2488 60.8033 43.0914 60.6871 42.9813C60.574 42.8713 60.4043 42.8162 60.1781 42.8162C60.0222 42.8162 59.8739 42.8422 59.7333 42.8942C59.5926 42.9462 59.4734 43.0149 59.3756 43.1005L59.2288 42.8575C59.3511 42.7535 59.4979 42.6741 59.6691 42.619C59.8403 42.5609 60.0206 42.5319 60.2102 42.5319C60.522 42.5319 60.762 42.6099 60.9302 42.7658C61.1014 42.9186 61.187 43.1525 61.187 43.4674V44.9624H60.8751ZM60.0451 44.9853C59.8647 44.9853 59.7073 44.9563 59.5728 44.8982C59.4413 44.8371 59.3404 44.7545 59.2701 44.6506C59.1998 44.5436 59.1646 44.4213 59.1646 44.2837C59.1646 44.1583 59.1937 44.0452 59.2517 43.9443C59.3129 43.8404 59.4107 43.7579 59.5452 43.6967C59.6828 43.6325 59.8663 43.6004 60.0955 43.6004H60.9256V43.8435H60.1047C59.8724 43.8435 59.7103 43.8847 59.6186 43.9673C59.53 44.0498 59.4856 44.1522 59.4856 44.2745C59.4856 44.4121 59.5391 44.5222 59.6461 44.6047C59.7531 44.6873 59.9029 44.7285 60.0955 44.7285C60.279 44.7285 60.4364 44.6873 60.5679 44.6047C60.7024 44.5191 60.8002 44.3968 60.8614 44.2378L60.9348 44.4625C60.8736 44.6215 60.7666 44.7484 60.6137 44.8432C60.4639 44.9379 60.2744 44.9853 60.0451 44.9853ZM62.8784 44.9853C62.6522 44.9853 62.4779 44.9242 62.3557 44.8019C62.2334 44.6796 62.1722 44.5069 62.1722 44.2837V42.0229H62.4978V44.2654C62.4978 44.406 62.533 44.5145 62.6033 44.5909C62.6767 44.6674 62.7806 44.7056 62.9151 44.7056C63.0588 44.7056 63.1781 44.6643 63.2728 44.5818L63.3875 44.8157C63.3233 44.8737 63.2453 44.9165 63.1536 44.9441C63.0649 44.9716 62.9732 44.9853 62.8784 44.9853ZM61.7412 42.8254V42.5548H63.2316V42.8254H61.7412ZM64.0261 44.9624V42.5548H64.3517V44.9624H64.0261ZM64.1911 42.0229C64.1239 42.0229 64.0673 41.9999 64.0215 41.9541C63.9756 41.9082 63.9527 41.8532 63.9527 41.789C63.9527 41.7248 63.9756 41.6713 64.0215 41.6285C64.0673 41.5826 64.1239 41.5597 64.1911 41.5597C64.2584 41.5597 64.315 41.5811 64.3608 41.6239C64.4067 41.6667 64.4296 41.7202 64.4296 41.7844C64.4296 41.8517 64.4067 41.9082 64.3608 41.9541C64.318 41.9999 64.2615 42.0229 64.1911 42.0229ZM66.2848 44.9853C66.0525 44.9853 65.8431 44.9334 65.6566 44.8294C65.4731 44.7224 65.3279 44.5772 65.2209 44.3938C65.1139 44.2073 65.0604 43.9948 65.0604 43.7563C65.0604 43.5148 65.1139 43.3023 65.2209 43.1189C65.3279 42.9355 65.4731 42.7918 65.6566 42.6878C65.84 42.5839 66.0494 42.5319 66.2848 42.5319C66.5233 42.5319 66.7343 42.5839 66.9177 42.6878C67.1042 42.7918 67.2494 42.9355 67.3533 43.1189C67.4603 43.3023 67.5139 43.5148 67.5139 43.7563C67.5139 43.9948 67.4603 44.2073 67.3533 44.3938C67.2494 44.5772 67.1042 44.7224 66.9177 44.8294C66.7312 44.9334 66.5202 44.9853 66.2848 44.9853ZM66.2848 44.6964C66.4591 44.6964 66.6135 44.6582 66.748 44.5818C66.8825 44.5023 66.988 44.3922 67.0644 44.2516C67.1439 44.1079 67.1837 43.9428 67.1837 43.7563C67.1837 43.5668 67.1439 43.4017 67.0644 43.261C66.988 43.1204 66.8825 43.0119 66.748 42.9355C66.6135 42.856 66.4606 42.8162 66.2894 42.8162C66.1182 42.8162 65.9654 42.856 65.8308 42.9355C65.6963 43.0119 65.5893 43.1204 65.5098 43.261C65.4303 43.4017 65.3906 43.5668 65.3906 43.7563C65.3906 43.9428 65.4303 44.1079 65.5098 44.2516C65.5893 44.3922 65.6963 44.5023 65.8308 44.5818C65.9654 44.6582 66.1167 44.6964 66.2848 44.6964ZM69.4534 42.5319C69.6491 42.5319 69.8203 42.5701 69.9671 42.6465C70.1169 42.7199 70.233 42.833 70.3156 42.9859C70.4012 43.1388 70.444 43.3314 70.444 43.5637V44.9624H70.1184V43.5958C70.1184 43.3421 70.0542 43.151 69.9258 43.0226C69.8004 42.8911 69.6231 42.8254 69.3938 42.8254C69.2226 42.8254 69.0728 42.8606 68.9444 42.9309C68.8191 42.9981 68.7212 43.0975 68.6509 43.2289C68.5837 43.3574 68.55 43.5133 68.55 43.6967V44.9624H68.2244V42.5548H68.5363V43.2152L68.4858 43.0914C68.5623 42.9171 68.6846 42.7811 68.8527 42.6832C69.0208 42.5823 69.2211 42.5319 69.4534 42.5319ZM72.0159 44.9853C71.8172 44.9853 71.6292 44.9578 71.4519 44.9028C71.2746 44.8447 71.1355 44.7729 71.0346 44.6873L71.1813 44.4304C71.2791 44.5038 71.4045 44.568 71.5574 44.623C71.7102 44.675 71.8707 44.701 72.0389 44.701C72.2682 44.701 72.4333 44.6659 72.5341 44.5955C72.635 44.5222 72.6855 44.4259 72.6855 44.3066C72.6855 44.218 72.6564 44.1492 72.5983 44.1003C72.5433 44.0483 72.4699 44.0101 72.3782 43.9856C72.2865 43.9581 72.1841 43.9352 72.071 43.9168C71.9579 43.8985 71.8447 43.8771 71.7316 43.8526C71.6216 43.8282 71.5207 43.793 71.429 43.7472C71.3372 43.6982 71.2623 43.6325 71.2042 43.55C71.1492 43.4674 71.1217 43.3574 71.1217 43.2198C71.1217 43.0883 71.1584 42.9706 71.2318 42.8667C71.3051 42.7627 71.4121 42.6817 71.5528 42.6236C71.6965 42.5625 71.8707 42.5319 72.0756 42.5319C72.2315 42.5319 72.3874 42.5533 72.5433 42.5961C72.6992 42.6358 72.8276 42.6893 72.9285 42.7566L72.7864 43.018C72.6794 42.9446 72.5647 42.8927 72.4424 42.8621C72.3201 42.8285 72.1978 42.8116 72.0756 42.8116C71.8585 42.8116 71.698 42.8499 71.594 42.9263C71.4932 42.9997 71.4427 43.0944 71.4427 43.2106C71.4427 43.3023 71.4702 43.3742 71.5253 43.4261C71.5833 43.4781 71.6582 43.5194 71.75 43.55C71.8447 43.5775 71.9472 43.6004 72.0572 43.6187C72.1703 43.6371 72.2819 43.66 72.392 43.6875C72.5051 43.712 72.6075 43.7472 72.6992 43.793C72.794 43.8358 72.8689 43.8985 72.9239 43.981C72.982 44.0605 73.0111 44.166 73.0111 44.2975C73.0111 44.4381 72.9713 44.5604 72.8918 44.6643C72.8154 44.7652 72.7023 44.8447 72.5525 44.9028C72.4057 44.9578 72.2269 44.9853 72.0159 44.9853Z" fill="#AEB0B0"/>
<path d="M8.25454 23.8438H18.9003V28.6917H8.25454V23.8438ZM8.71312 32.8845H20.7019V37.8962H2.29293V14.9669H20.276V19.9786H8.71312V32.8845Z" fill="#D02443"/>
<path d="M24.1699 37.8962L34.2916 14.9669H40.679L50.8334 37.8962H44.0856L36.1586 18.1442H38.7136L30.7866 37.8962H24.1699ZM29.7057 33.4413L31.3763 28.659H42.5788L44.2494 33.4413H29.7057Z" fill="#FFAD1B"/>
<path d="M60.1732 37.8962V20.1096H53.1307V14.9669H73.6687V20.1096H66.6589V37.8962H60.1732Z" fill="#AEB0B0"/>
<path d="M2.33199 10.0001V3.12128H5.01472C5.61743 3.12128 6.1317 3.21627 6.55753 3.40626C6.98336 3.59624 7.31092 3.87139 7.54021 4.23171C7.76951 4.59203 7.88415 5.02113 7.88415 5.51902C7.88415 6.01692 7.76951 6.44602 7.54021 6.80634C7.31092 7.16011 6.98336 7.43198 6.55753 7.62197C6.1317 7.81195 5.61743 7.90695 5.01472 7.90695H2.87247L3.31468 7.45491V10.0001H2.33199ZM6.93095 10.0001L5.18177 7.50405H6.23325L8.00208 10.0001H6.93095ZM3.31468 7.55318L2.87247 7.07166H4.98524C5.61415 7.07166 6.08912 6.93736 6.41013 6.66876C6.73769 6.39361 6.90147 6.01037 6.90147 5.51902C6.90147 5.02768 6.73769 4.64771 6.41013 4.37911C6.08912 4.11051 5.61415 3.97621 4.98524 3.97621H2.87247L3.31468 3.48487V7.55318ZM10.9557 6.08898H14.4933V6.92426H10.9557V6.08898ZM11.0441 9.14513H15.0534V10.0001H10.0614V3.12128H14.9159V3.97621H11.0441V9.14513ZM19.2389 10.0787C18.7148 10.0787 18.2136 10.0001 17.7354 9.84283C17.2572 9.67905 16.8805 9.46941 16.6053 9.21391L16.9689 8.44742C17.231 8.67671 17.5651 8.8667 17.9712 9.01738C18.3774 9.16806 18.8 9.24339 19.2389 9.24339C19.6385 9.24339 19.9628 9.19754 20.2118 9.10582C20.4607 9.0141 20.6441 8.88963 20.7621 8.7324C20.88 8.56862 20.9389 8.38518 20.9389 8.1821C20.9389 7.94625 20.8603 7.75627 20.7031 7.61214C20.5524 7.46801 20.3526 7.35337 20.1037 7.2682C19.8613 7.17648 19.5927 7.09787 19.2979 7.03236C19.0031 6.96685 18.705 6.89151 18.4036 6.80634C18.1088 6.71462 17.8369 6.59998 17.588 6.4624C17.3456 6.32483 17.1491 6.14139 16.9984 5.9121C16.8477 5.67625 16.7724 5.3749 16.7724 5.00803C16.7724 4.65426 16.8641 4.32998 17.0475 4.03517C17.2375 3.73382 17.5258 3.4947 17.9123 3.31781C18.3054 3.13438 18.8032 3.04266 19.406 3.04266C19.8056 3.04266 20.2019 3.09507 20.595 3.19989C20.9881 3.30471 21.3287 3.45539 21.617 3.65193L21.2927 4.43807C20.9979 4.24154 20.6867 4.10069 20.3592 4.01552C20.0316 3.9238 19.7139 3.87794 19.406 3.87794C19.0194 3.87794 18.7017 3.92708 18.4528 4.02535C18.2038 4.12361 18.0204 4.25464 17.9025 4.41842C17.7911 4.5822 17.7354 4.76563 17.7354 4.96872C17.7354 5.21112 17.8107 5.40438 17.9614 5.54851C18.1186 5.69263 18.3185 5.80728 18.5609 5.89244C18.8098 5.97761 19.0817 6.05623 19.3765 6.12829C19.6713 6.1938 19.9661 6.26914 20.2609 6.35431C20.5623 6.43947 20.8341 6.55084 21.0765 6.68842C21.3255 6.82599 21.5253 7.00943 21.676 7.23872C21.8266 7.46801 21.902 7.76282 21.902 8.12314C21.902 8.47035 21.807 8.79464 21.617 9.09599C21.427 9.3908 21.1322 9.62992 20.7326 9.81335C20.3395 9.99023 19.8416 10.0787 19.2389 10.0787ZM25.1972 10.0001V3.97621H22.8387V3.12128H28.5285V3.97621H26.17V10.0001H25.1972ZM28.8013 10.0001L31.9164 3.12128H32.8892L36.0142 10.0001H34.9823L32.2013 3.67158H32.5944L29.8134 10.0001H28.8013ZM30.1279 8.28037L30.3932 7.49422H34.265L34.55 8.28037H30.1279ZM40.3357 10.0787C39.4317 10.0787 38.7209 9.8199 38.2033 9.30236C37.6858 8.78481 37.427 8.02814 37.427 7.03236V3.12128H38.4097V6.99305C38.4097 7.75954 38.5767 8.31967 38.9108 8.67344C39.2515 9.0272 39.7297 9.20409 40.3456 9.20409C40.9679 9.20409 41.4462 9.0272 41.7803 8.67344C42.1209 8.31967 42.2913 7.75954 42.2913 6.99305V3.12128H43.2445V7.03236C43.2445 8.02814 42.9857 8.78481 42.4682 9.30236C41.9572 9.8199 41.2464 10.0787 40.3357 10.0787ZM45.8487 10.0001V3.12128H48.5315C49.1342 3.12128 49.6484 3.21627 50.0743 3.40626C50.5001 3.59624 50.8277 3.87139 51.057 4.23171C51.2863 4.59203 51.4009 5.02113 51.4009 5.51902C51.4009 6.01692 51.2863 6.44602 51.057 6.80634C50.8277 7.16011 50.5001 7.43198 50.0743 7.62197C49.6484 7.81195 49.1342 7.90695 48.5315 7.90695H46.3892L46.8314 7.45491V10.0001H45.8487ZM50.4477 10.0001L48.6985 7.50405H49.75L51.5188 10.0001H50.4477ZM46.8314 7.55318L46.3892 7.07166H48.502C49.1309 7.07166 49.6059 6.93736 49.9269 6.66876C50.2544 6.39361 50.4182 6.01037 50.4182 5.51902C50.4182 5.02768 50.2544 4.64771 49.9269 4.37911C49.6059 4.11051 49.1309 3.97621 48.502 3.97621H46.3892L46.8314 3.48487V7.55318ZM52.5365 10.0001L55.6516 3.12128H56.6245L59.7494 10.0001H58.7176L55.9366 3.67158H56.3297L53.5487 10.0001H52.5365ZM53.8631 8.28037L54.1285 7.49422H58.0002L58.2852 8.28037H53.8631ZM61.3652 10.0001V3.12128H62.171L66.7208 8.77171H66.2982V3.12128H67.2809V10.0001H66.4751L61.9253 4.34963H62.3478V10.0001H61.3652ZM71.2954 10.0001V3.97621H68.937V3.12128H74.6267V3.97621H72.2683V10.0001H71.2954Z" fill="white"/>
</svg>
