<svg width="24" height="24" viewBox="0 0 24 24" fill="none" xmlns="http://www.w3.org/2000/svg">
<path d="M8.31 10.28C7.81512 10.28 7.33138 10.4269 6.92004 10.7021C6.50871 10.9772 6.18828 11.3682 5.99936 11.8256C5.81044 12.283 5.76152 12.7862 5.8588 13.2714C5.95607 13.7567 6.19517 14.2021 6.5458 14.5513C6.89643 14.9006 7.34282 15.1379 7.82843 15.2332C8.31404 15.3285 8.81702 15.2776 9.27366 15.0868C9.7303 14.8961 10.12 14.5741 10.3935 14.1617C10.667 13.7492 10.812 13.2649 10.81 12.77C10.8074 12.1087 10.5428 11.4754 10.0742 11.0087C9.60569 10.542 8.97131 10.28 8.31 10.28ZM8.31 14.08C8.12902 14.0959 7.94673 14.0739 7.77469 14.0155C7.60266 13.9572 7.44465 13.8636 7.3107 13.7409C7.17675 13.6182 7.06979 13.469 6.99661 13.3027C6.92344 13.1364 6.88566 12.9567 6.88566 12.775C6.88566 12.5934 6.92344 12.4137 6.99661 12.2474C7.06979 12.0811 7.17675 11.9319 7.3107 11.8091C7.44465 11.6864 7.60266 11.5929 7.77469 11.5345C7.94673 11.4761 8.12902 11.4542 8.31 11.47C8.49098 11.4542 8.67328 11.4761 8.84531 11.5345C9.01735 11.5929 9.17536 11.6864 9.30931 11.8091C9.44326 11.9319 9.55022 12.0811 9.62339 12.2474C9.69656 12.4137 9.73435 12.5934 9.73435 12.775C9.73435 12.9567 9.69656 13.1364 9.62339 13.3027C9.55022 13.469 9.44326 13.6182 9.30931 13.7409C9.17536 13.8636 9.01735 13.9572 8.84531 14.0155C8.67328 14.0739 8.49098 14.0959 8.31 14.08ZM15.69 10.28C15.1951 10.28 14.7114 10.4269 14.3 10.7021C13.8887 10.9772 13.5683 11.3682 13.3794 11.8256C13.1904 12.283 13.1415 12.7862 13.2388 13.2714C13.3361 13.7567 13.5752 14.2021 13.9258 14.5513C14.2764 14.9006 14.7228 15.1379 15.2084 15.2332C15.694 15.3285 16.197 15.2776 16.6537 15.0868C17.1103 14.8961 17.5 14.5741 17.7735 14.1617C18.047 13.7492 18.192 13.2649 18.19 12.77C18.1874 12.1087 17.9228 11.4754 17.4542 11.0087C16.9857 10.542 16.3513 10.28 15.69 10.28ZM17 12.77C17.002 13.0295 16.9268 13.2838 16.7841 13.5005C16.6414 13.7173 16.4375 13.8867 16.1983 13.9874C15.9591 14.0881 15.6954 14.1155 15.4406 14.0661C15.1858 14.0167 14.9515 13.8927 14.7673 13.7099C14.5831 13.5271 14.4573 13.2937 14.406 13.0393C14.3546 12.7849 14.3799 12.521 14.4788 12.2811C14.5776 12.0411 14.7455 11.8359 14.9612 11.6915C15.1768 11.5471 15.4305 11.47 15.69 11.47C16.0357 11.47 16.3674 11.6067 16.6128 11.8502C16.8582 12.0937 16.9974 12.4243 17 12.77Z" fill="#FFAD1B"/>
<path d="M12 2C10.0222 2 8.08879 2.58649 6.44429 3.6853C4.7998 4.78412 3.51808 6.3459 2.7612 8.17317C2.00433 10.0004 1.80629 12.0111 2.19214 13.9509C2.578 15.8907 3.5304 17.6725 4.92893 19.0711C6.32745 20.4696 8.10928 21.422 10.0491 21.8079C11.9889 22.1937 13.9996 21.9957 15.8268 21.2388C17.6541 20.4819 19.2159 19.2002 20.3147 17.5557C21.4135 15.9112 22 13.9778 22 12C22 10.6868 21.7413 9.38642 21.2388 8.17317C20.7362 6.95991 19.9996 5.85752 19.0711 4.92893C18.1425 4.00035 17.0401 3.26375 15.8268 2.7612C14.6136 2.25866 13.3132 2 12 2ZM19.38 12.77C19.381 13.4885 19.1722 14.1917 18.7793 14.7933C18.3863 15.3948 17.8263 15.8685 17.1679 16.1563C16.5095 16.4441 15.7814 16.5334 15.073 16.4132C14.3646 16.2931 13.7067 15.9688 13.18 15.48L12 16.77L10.82 15.48C10.4628 15.8083 10.0444 16.063 9.5888 16.2297C9.13315 16.3963 8.64915 16.4715 8.16443 16.4511C7.67971 16.4307 7.20376 16.315 6.76375 16.1106C6.32375 15.9062 5.9283 15.6172 5.6 15.26C5.27169 14.9028 5.01696 14.4844 4.85034 14.0288C4.68371 13.5732 4.60847 13.0892 4.6289 12.6044C4.64933 12.1197 4.76503 11.6438 4.9694 11.2038C5.17377 10.7637 5.4628 10.3683 5.82 10.04L4.62 8.74H7.3C8.68572 7.79152 10.3258 7.284 12.005 7.284C13.6842 7.284 15.3243 7.79152 16.71 8.74H19.38L18.18 10.05C18.5568 10.3961 18.8579 10.8165 19.0644 11.2845C19.2709 11.7526 19.3783 12.2584 19.38 12.77Z" fill="#FFAD1B"/>
<path d="M14.77 9.05012C13.8925 8.68376 12.9509 8.49512 12 8.49512C11.049 8.49512 10.1075 8.68376 9.23 9.05012C10.0055 9.30888 10.6849 9.79575 11.1791 10.447C11.6734 11.0983 11.9595 11.8836 12 12.7001C12.0432 11.8843 12.3304 11.1003 12.8242 10.4495C13.3181 9.79879 13.9959 9.31127 14.77 9.05012Z" fill="#FFAD1B"/>
</svg>
